<mxfile host="app.diagrams.net" agent="Mozilla/5.0 (Windows NT 10.0; Win64; x64) AppleWebKit/537.36 (KHTML, like Gecko) Chrome/129.0.0.0 Safari/537.36" version="24.8.0">
  <diagram name="Page-1" id="xzb-45CWAd2m_McYATyi">
    <mxGraphModel dx="1050" dy="522" grid="1" gridSize="10" guides="1" tooltips="1" connect="1" arrows="1" fold="1" page="1" pageScale="1" pageWidth="850" pageHeight="1100" math="0" shadow="0">
      <root>
        <mxCell id="0" />
        <mxCell id="1" parent="0" />
        <mxCell id="HNV_tu9V-47TA4Y1NMeL-22" style="rounded=0;orthogonalLoop=1;jettySize=auto;html=1;dashed=1;dashPattern=1 4;endArrow=none;endFill=0;fillColor=#d5e8d4;strokeColor=#82b366;" edge="1" parent="1" source="HNV_tu9V-47TA4Y1NMeL-1" target="HNV_tu9V-47TA4Y1NMeL-2">
          <mxGeometry relative="1" as="geometry" />
        </mxCell>
        <mxCell id="HNV_tu9V-47TA4Y1NMeL-1" value="Active Directory&lt;div&gt;IP: 192.168.10.7&lt;/div&gt;&lt;div&gt;Splunk Universal Forwarder&lt;/div&gt;&lt;div&gt;Sysmon&lt;/div&gt;" style="sketch=0;outlineConnect=0;fontColor=#232F3E;gradientColor=none;fillColor=#232F3D;strokeColor=none;dashed=0;verticalLabelPosition=bottom;verticalAlign=top;align=center;html=1;fontSize=12;fontStyle=0;aspect=fixed;pointerEvents=1;shape=mxgraph.aws4.traditional_server;" vertex="1" parent="1">
          <mxGeometry x="125" y="310" width="45" height="78" as="geometry" />
        </mxCell>
        <mxCell id="HNV_tu9V-47TA4Y1NMeL-2" value="Splunk Server&lt;div&gt;Ip: 192.168.10.10&lt;/div&gt;" style="sketch=0;outlineConnect=0;fontColor=#232F3E;gradientColor=none;fillColor=#232F3D;strokeColor=none;dashed=0;verticalLabelPosition=bottom;verticalAlign=top;align=center;html=1;fontSize=12;fontStyle=0;aspect=fixed;pointerEvents=1;shape=mxgraph.aws4.traditional_server;" vertex="1" parent="1">
          <mxGeometry x="125" y="146" width="45" height="78" as="geometry" />
        </mxCell>
        <mxCell id="HNV_tu9V-47TA4Y1NMeL-21" style="rounded=0;orthogonalLoop=1;jettySize=auto;html=1;exitX=0;exitY=0.5;exitDx=0;exitDy=0;exitPerimeter=0;dashed=1;dashPattern=1 4;endArrow=none;endFill=0;fillColor=#d5e8d4;strokeColor=#82b366;" edge="1" parent="1" source="HNV_tu9V-47TA4Y1NMeL-3" target="HNV_tu9V-47TA4Y1NMeL-2">
          <mxGeometry relative="1" as="geometry" />
        </mxCell>
        <mxCell id="HNV_tu9V-47TA4Y1NMeL-3" value="Windows 10&lt;div&gt;IP: DHCP&lt;/div&gt;&lt;div&gt;Splunk Universal Forwarder&lt;/div&gt;&lt;div&gt;Sysmon&lt;/div&gt;" style="verticalLabelPosition=bottom;html=1;verticalAlign=top;align=center;strokeColor=none;fillColor=#00BEF2;shape=mxgraph.azure.computer;pointerEvents=1;" vertex="1" parent="1">
          <mxGeometry x="365" y="430" width="50" height="45" as="geometry" />
        </mxCell>
        <mxCell id="HNV_tu9V-47TA4Y1NMeL-4" value="Kali Linux&lt;div&gt;IP: 192.168.10.250&lt;/div&gt;" style="verticalLabelPosition=bottom;html=1;verticalAlign=top;align=center;strokeColor=#b85450;fillColor=#f8cecc;shape=mxgraph.azure.computer;pointerEvents=1;" vertex="1" parent="1">
          <mxGeometry x="530" y="276.5" width="50" height="45" as="geometry" />
        </mxCell>
        <mxCell id="HNV_tu9V-47TA4Y1NMeL-5" value="" style="sketch=0;points=[[0.015,0.015,0],[0.985,0.015,0],[0.985,0.985,0],[0.015,0.985,0],[0.25,0,0],[0.5,0,0],[0.75,0,0],[1,0.25,0],[1,0.5,0],[1,0.75,0],[0.75,1,0],[0.5,1,0],[0.25,1,0],[0,0.75,0],[0,0.5,0],[0,0.25,0]];verticalLabelPosition=bottom;html=1;verticalAlign=top;aspect=fixed;align=center;pointerEvents=1;shape=mxgraph.cisco19.rect;prIcon=l2_switch;fillColor=#FAFAFA;strokeColor=#005073;" vertex="1" parent="1">
          <mxGeometry x="365" y="280" width="50" height="50" as="geometry" />
        </mxCell>
        <mxCell id="HNV_tu9V-47TA4Y1NMeL-6" value="" style="sketch=0;points=[[0.5,0,0],[1,0.5,0],[0.5,1,0],[0,0.5,0],[0.145,0.145,0],[0.8555,0.145,0],[0.855,0.8555,0],[0.145,0.855,0]];verticalLabelPosition=bottom;html=1;verticalAlign=top;aspect=fixed;align=center;pointerEvents=1;shape=mxgraph.cisco19.rect;prIcon=router;fillColor=#FAFAFA;strokeColor=#005073;" vertex="1" parent="1">
          <mxGeometry x="365" y="160" width="50" height="50" as="geometry" />
        </mxCell>
        <mxCell id="HNV_tu9V-47TA4Y1NMeL-7" value="Internet" style="ellipse;shape=cloud;whiteSpace=wrap;html=1;" vertex="1" parent="1">
          <mxGeometry x="330" y="20" width="120" height="80" as="geometry" />
        </mxCell>
        <mxCell id="HNV_tu9V-47TA4Y1NMeL-8" style="edgeStyle=orthogonalEdgeStyle;rounded=0;orthogonalLoop=1;jettySize=auto;html=1;entryX=0.836;entryY=0.376;entryDx=0;entryDy=0;entryPerimeter=0;" edge="1" parent="1" source="HNV_tu9V-47TA4Y1NMeL-4" target="HNV_tu9V-47TA4Y1NMeL-5">
          <mxGeometry relative="1" as="geometry" />
        </mxCell>
        <mxCell id="HNV_tu9V-47TA4Y1NMeL-12" style="edgeStyle=orthogonalEdgeStyle;rounded=0;orthogonalLoop=1;jettySize=auto;html=1;entryX=0.5;entryY=1;entryDx=0;entryDy=0;entryPerimeter=0;" edge="1" parent="1" source="HNV_tu9V-47TA4Y1NMeL-5" target="HNV_tu9V-47TA4Y1NMeL-6">
          <mxGeometry relative="1" as="geometry" />
        </mxCell>
        <mxCell id="HNV_tu9V-47TA4Y1NMeL-14" style="rounded=0;orthogonalLoop=1;jettySize=auto;html=1;exitX=0.5;exitY=0;exitDx=0;exitDy=0;exitPerimeter=0;entryX=0.493;entryY=1.01;entryDx=0;entryDy=0;entryPerimeter=0;" edge="1" parent="1" source="HNV_tu9V-47TA4Y1NMeL-6" target="HNV_tu9V-47TA4Y1NMeL-7">
          <mxGeometry relative="1" as="geometry" />
        </mxCell>
        <mxCell id="HNV_tu9V-47TA4Y1NMeL-15" style="edgeStyle=orthogonalEdgeStyle;rounded=0;orthogonalLoop=1;jettySize=auto;html=1;entryX=0;entryY=0.5;entryDx=0;entryDy=0;entryPerimeter=0;" edge="1" parent="1" source="HNV_tu9V-47TA4Y1NMeL-2" target="HNV_tu9V-47TA4Y1NMeL-5">
          <mxGeometry relative="1" as="geometry" />
        </mxCell>
        <mxCell id="HNV_tu9V-47TA4Y1NMeL-16" style="edgeStyle=orthogonalEdgeStyle;rounded=0;orthogonalLoop=1;jettySize=auto;html=1;entryX=0;entryY=0.5;entryDx=0;entryDy=0;entryPerimeter=0;" edge="1" parent="1" source="HNV_tu9V-47TA4Y1NMeL-1" target="HNV_tu9V-47TA4Y1NMeL-5">
          <mxGeometry relative="1" as="geometry" />
        </mxCell>
        <mxCell id="HNV_tu9V-47TA4Y1NMeL-17" value="Domain: MyDFIR&lt;div&gt;Network: 192.168.10.0/24&lt;/div&gt;&lt;div&gt;Splunk Server: 192.168.10.10&lt;/div&gt;&lt;div&gt;Active Directory: 192.168.10.7&lt;/div&gt;&lt;div&gt;Attacker: 192.168.10.250&lt;/div&gt;" style="text;html=1;align=center;verticalAlign=middle;resizable=0;points=[];autosize=1;strokeColor=none;fillColor=none;" vertex="1" parent="1">
          <mxGeometry x="70" y="15" width="180" height="90" as="geometry" />
        </mxCell>
        <mxCell id="HNV_tu9V-47TA4Y1NMeL-18" style="edgeStyle=orthogonalEdgeStyle;rounded=0;orthogonalLoop=1;jettySize=auto;html=1;entryX=0.516;entryY=0.872;entryDx=0;entryDy=0;entryPerimeter=0;" edge="1" parent="1" source="HNV_tu9V-47TA4Y1NMeL-3" target="HNV_tu9V-47TA4Y1NMeL-5">
          <mxGeometry relative="1" as="geometry" />
        </mxCell>
      </root>
    </mxGraphModel>
  </diagram>
</mxfile>
